PathFileType	4	(X/Y/Z)	D:\Long Term Storage\D'Arcy Smith\Coord18.trc
DataRate	CameraRate	NumFrames	NumMarkers	Units	OrigDataRate	OrigDataStartFrame	OrigNumFrames
120.00	120.00	      88	4	mm	120.00	1197	      4787
Frame#	Time	M1			M2			M3			M4			
		X1	Y1	Z1	X2	Y2	Z2	X3	Y3	Z3	X4	Y4	Z4	

1197	9.967	617.50140	324.18076	430.76263	1011.40076	416.12671	562.20673							
1198	9.975	617.20953	329.90280	443.53726	1011.08685	422.11526	566.91846							
1199	9.983	617.17645	336.20209	457.16211	1010.44904	427.12564	570.54761							
1200	9.992	616.72260	341.75540	468.46634	1009.54150	431.53058	573.86224							
1201	10.000	615.99750	348.47571	482.90613	1008.49426	434.89319	576.85364							
1202	10.008	615.23499	355.55786	494.50269	1006.76263	437.22015	579.21716							
1203	10.017	614.58301	362.33185	504.68845	1005.65863	439.53638	579.61102							
1204	10.025	613.72443	369.66885	514.73425	1003.97339	440.31741	580.57623							
1205	10.033	612.74133	375.98825	522.57880	1001.72351	439.95963	581.42212							
1206	10.042	611.58862	383.24728	530.87622	1000.10577	439.68796	579.60663							
1207	10.050	610.20270	389.51154	537.58270	998.08704	437.81848	578.10156							
1208	10.058	609.21924	396.15283	544.03339	995.78040	435.41055	576.37164							
1209	10.067	607.96765	402.17041	549.30005	993.60406	432.54071	573.34888							
1210	10.075	607.16022	407.80661	554.13928	991.12903	428.85043	570.03223							
1211	10.083	606.36877	413.11530	558.13495	988.67383	424.58264	565.88715							
1212	10.092	605.77686	417.94141	561.35461	986.24561	419.58270	561.11200							
1213	10.100	605.21448	422.30688	564.12762	983.85120	414.16577	555.72870							
1214	10.108	604.68414	425.94025	566.12329	981.57404	408.20190	549.00592							
1215	10.117	604.28961	429.15454	567.53345	979.26147	402.29510	542.40485							
1216	10.125	604.02319	431.63571	568.37000	976.87427	395.52283	534.44104							
1217	10.133	603.83875	433.48270	568.34473	974.80334	388.55017	525.59546							
1218	10.142	603.69476	434.57056	567.50073	972.59113	381.39243	515.63000							
1219	10.150	603.66113	434.86502	565.97217	970.44031	374.11307	504.88086							
1220	10.158	603.79907	434.33862	563.80829	968.49200	366.58704	493.37430							
1221	10.167	603.87799	432.81000	560.50262	966.79236	359.36325	481.40314							
1222	10.175	604.37946	430.61475	556.30310	964.95917	351.98016	467.92841							
1223	10.183	605.01312	427.16733	551.35724	963.60938	344.61783	453.96869							
1224	10.192	605.85052	423.08258	545.57312	961.88690	337.22876	437.80798							
1225	10.200	606.93286	418.16992	538.71259	961.13617	330.31824	423.65506							
1226	10.208	607.89099	412.21820	530.35449	959.96686	323.71948	407.24951							
1227	10.217	609.48334	406.12045	521.67853	959.05865	318.04449	390.06607							
1228	10.225	610.54712	398.73944	511.00134	958.58716	312.87903	372.45007							
1229	10.233	611.96472	390.97418	499.20123	958.98389	308.29254	354.32660							
1230	10.242	613.24042	383.64954	487.17343	958.77814	304.56104	335.67343							
1231	10.250	614.30560	376.01465	473.93216	958.58130	301.76315	316.82336							
1232	10.258	615.28485	368.43030	458.20255	958.55951	299.85083	297.37082							
1233	10.267	615.82648	361.02609	443.17648	958.70477	298.88275	277.75095							
1234	10.275	616.12109	353.84537	427.20657	958.80878	298.51596	257.51599							
1235	10.283	615.74487	346.11557	410.21124	959.37524	299.40201	237.88953							
1236	10.292	615.46906	339.69931	392.86569	959.90808	300.94620	218.49123							
1237	10.300	614.88263	334.24847	375.67783	960.52527	303.46313	199.27780							
1238	10.308	614.11853	328.86694	357.01938	961.25909	306.56012	180.34340							
1239	10.317	613.37854	324.40228	338.00110	960.93365	311.43530	161.54097							
1240	10.325	612.45770	321.61960	317.84952	961.86279	316.08545	143.66243							
1241	10.333	611.30280	317.84344	298.46219	962.89600	321.47150	126.07212							
1242	10.342	609.70270	315.72958	278.32138	963.81036	327.06274	109.86968							
1243	10.350	607.76337	314.68533	258.54486	965.43805	334.76392	90.54445							
1244	10.358	605.57141	314.38776	238.30299	966.39709	341.69400	75.59470							
1245	10.367	603.21118	315.00516	218.72137	967.58124	349.11914	61.15224							
1246	10.375	600.36975	316.39850	199.17914	968.76648	356.73773	47.55208							
1247	10.383	597.97571	319.48035	179.97633	969.33636	364.04791	34.75708							
1248	10.392	594.64087	322.06448	160.64262	970.22321	371.99670	23.53154							
1249	10.400	591.23700	325.82028	142.97577	971.36603	379.59546	12.11874							
1250	10.408	587.84705	330.34756	125.67220	972.31689	387.17609	2.40344							
1251	10.417	584.26514	335.47391	109.42368	973.31970	394.46753	-6.55604							
1252	10.425	580.54578	341.05368	94.22677	973.91309	401.21155	-14.36448							
1253	10.433	576.96661	346.98032	80.02097	974.47357	407.53091	-21.17947							
1254	10.442	573.37042	353.08304	70.91583	974.84052	413.20959	-27.09803							
1255	10.450	568.05847	360.99020	53.75289	975.04443	418.39505	-32.11089							
1256	10.458	564.90991	367.10788	43.47678	975.14685	422.84265	-36.27876							
1257	10.467	561.60254	373.22385	34.08117	974.95911	426.56918	-39.90858							
1258	10.475	558.27380	378.95300	25.97500	974.82031	429.58524	-42.14328							
1259	10.483	555.46033	384.16998	19.03953	974.47443	431.75156	-43.84897							
1260	10.492	552.72388	388.75812	13.93493	974.09686	433.17429	-44.83603							
1261	10.500	550.42786	392.81662	9.76978	973.60248	433.87216	-45.13663							
1262	10.508	548.03967	396.02264	7.04657	972.96204	433.70340	-44.70744							
1263	10.517	547.31122	398.71689	4.48218	972.30261	432.74667	-43.65690							
1264	10.525	546.41736	400.29276	3.48779	971.49402	431.17407	-41.92515							
1265	10.533	545.32904	400.82770	3.98449	970.46442	428.89249	-39.53809							
1266	10.542	545.32196	400.62695	4.93191	969.46051	425.90839	-36.35162							
1267	10.550	546.17139	399.72461	6.63143	968.40961	422.41492	-32.57424							
1268	10.558	546.58386	397.59818	10.09244	967.34973	418.32687	-28.28663							
1269	10.567	548.26129	394.79922	13.52859	966.29102	413.85922	-23.42009							
1270	10.575	549.11920	390.97009	18.17319	965.20966	408.89294	-18.05487							
1271	10.583	551.49512	386.81628	24.22795	964.03546	403.65363	-12.10025							
1272	10.592	553.65540	381.52118	30.81319	963.00763	398.21213	-5.50719							
1273	10.600	556.15002	375.60928	38.39171	961.66876	391.96204	1.80599							
1274	10.608	559.07794	369.27161	46.93116	960.68384	385.91769	9.46359							
1275	10.617	562.19000	362.42850	56.66435	959.67664	379.64722	17.63247							
1276	10.625	565.80609	355.05231	67.65833	958.80566	373.23700	26.42809							
1277	10.633	570.21735	347.86917	78.96732	957.95428	366.74243	35.84747							
1278	10.642	574.13196	340.16901	90.89183	957.59546	360.95972	45.09999							
1279	10.650	577.83026	331.98093	106.70336	956.82086	353.71167	56.34381							
1280	10.658	584.23206	324.41025	127.19057	956.20074	347.10168	67.61888							
1281	10.667	588.98798	317.95160	143.17029	956.06000	341.06354	79.17928							
1282	10.675	593.48578	311.66153	159.76802	955.55823	334.70261	91.37415							
1283	10.683	598.22986	306.86307	176.17888	955.10437	328.74078	105.46304							
1284	10.692	601.61182	301.76999	194.87932	955.65466	321.64447	121.27554							
